<svg xmlns="http://www.w3.org/2000/svg" width="19" height="19"><style></style><g id="cup"><g id="Partner 3"><path id="Shape 153" d="M15.27 15.43c-.6-.04-1.29-.08-2.04-.1.68-.59 1.26-1.36 1.68-2.25.2.21.46.36.75.43a1.54 1.54 0 001.21-.19c.37-.22.63-.58.73-1a1.617 1.617 0 00-1.95-1.95c.03-.29.05-.58.05-.88a.56.56 0 00-.56-.56H4.79a.56.56 0 00-.56.56c0 2.42.98 4.55 2.46 5.84-.74.02-1.43.06-2.03.1-2.09.15-2.7.29-2.7.93 0 .65.61.79 2.7.94 1.42.1 3.3.15 5.31.15 2 0 3.88-.05 5.3-.15 2.09-.15 2.7-.29 2.7-.94 0-.64-.61-.78-2.7-.93zm.27-4.29c0-.01.01-.01.01-.01a.935.935 0 011.29.32c.13.21.16.46.11.71-.06.24-.21.45-.43.58-.21.13-.46.17-.7.11a.927.927 0 01-.58-.42c-.01-.02-.03-.03-.04-.05.14-.39.25-.81.34-1.24zM5.37 10.06h9.19c-.22 3.04-2.2 5.42-4.59 5.42-2.4 0-4.38-2.38-4.6-5.42zm3.56-2.28h.04c.13 0 .27-.07.35-.18.1-.12.12-.28.07-.43-.01-.01-.43-1.25.12-2.29.59-.99.79-1.79.57-2.37-.19-.52-.61-.66-.66-.67a.455.455 0 00-.56.3c-.07.24.07.5.28.56.01 0 .07.03.1.13.05.14.11.57-.48 1.56l-.02.03-.15.24c-.68 1.05-.88 1.88-.61 2.46.23.47.7.64.95.66zm2.38.08h.04c.12 0 .25-.06.33-.16.09-.12.11-.27.06-.41 0 0-.24-.71.07-1.28.39-.66.51-1.17.36-1.58a.782.782 0 00-.51-.5.426.426 0 00-.52.28.47.47 0 00.03.33c.06.1.15.17.25.2-.02-.01-.04-.01-.04-.01.01.02.07.23-.28.82l-.03.04c-.02.04-.05.08-.08.13-.45.7-.58 1.24-.38 1.66.16.32.47.46.7.48z" fill="#fff"/></g></g></svg>