<svg xmlns="http://www.w3.org/2000/svg" width="19" height="18"><style></style><g id="telegramm"><g id="Partner 4"><path id="Shape 170" d="M17.45 1.72c-.05-.04-.12-.05-.17-.02L1.6 9.63c-.05.03-.09.1-.08.16 0 .06.05.12.11.14l4.96 1.56c.05.02.11.01.16-.03l7.54-6.39-5.79 6.79c-.04.05-.05.1-.04.15.02.05.06.09.11.11l5.82 1.76h.05c.03 0 .06 0 .08-.02.04-.02.07-.06.08-.1l2.91-11.88c.01-.06-.01-.13-.06-.16zm-7.17 12.14l-1.61-.49a.16.16 0 00-.15.02c-.04.03-.06.08-.06.13v3.01c0 .07.05.13.11.15.02 0 .03.01.05.01.05 0 .11-.03.14-.08l1.6-2.52a.14.14 0 00.02-.14c-.02-.04-.06-.08-.1-.09z" fill="#fff"/></g></g></svg>