<svg xmlns="http://www.w3.org/2000/svg" width="15" height="19"><style></style><g id="tube"><g id="Partner 2"><path id="Shape 155" d="M13.22 15.01l-3.07-8.26V4.31c.58-.2 1-.74 1-1.38v-.4c0-.81-.66-1.46-1.48-1.46H5.3c-.82 0-1.48.65-1.48 1.46v.4c0 .64.41 1.18.99 1.38v2.44L1.75 15c-.18.45-.13.96.14 1.37.28.4.74.65 1.23.65h8.72c.5 0 .96-.25 1.23-.65.28-.41.33-.92.15-1.36zm-8.11-1.87c0-.28.22-.5.5-.5s.51.22.51.5-.23.5-.51.5-.5-.22-.5-.5zm3.25.43c.48 0 .87.39.87.87 0 .47-.39.86-.87.86s-.87-.39-.87-.86c0-.48.39-.87.87-.87zm-.74-1.89a.625.625 0 011.25 0c0 .35-.28.62-.62.62-.35 0-.63-.27-.63-.62zM5.79 6.92V3.91l-.01-.48H5.3a.51.51 0 01-.51-.5v-.4c0-.27.23-.49.51-.49h4.37c.28 0 .5.22.5.49v.4c0 .27-.22.5-.5.5h-.49v3.49l.85 2.31-.03.03c-.64.66-5.31.74-5.31.74h-.04l1.14-3.08zm1.35 1.87c.38 0 .68-.31.68-.68 0-.37-.3-.67-.68-.67-.37 0-.68.3-.68.67 0 .37.31.68.68.68z" fill="#fff"/></g></g></svg>