<svg xmlns="http://www.w3.org/2000/svg" width="19" height="19"><style></style><g id="tv"><g id="Partner 1"><path id="Shape 128" d="M16.62 5.15h-5.68l2.24-2.68c.03 0 .06.02.1.02a.67.67 0 10-.67-.67c0 .08.02.16.05.23l-2.59 3.1h-.25l-2.59-3.1c.03-.07.05-.15.05-.23a.67.67 0 10-.67.67c.04 0 .07-.02.1-.02l2.25 2.68H3.28c-.74 0-1.34.6-1.34 1.33v9.32c0 .73.6 1.33 1.34 1.33h13.34c.73 0 1.33-.6 1.33-1.33V6.48c0-.73-.6-1.33-1.33-1.33zm-2.67 9.32c0 .73-.6 1.33-1.34 1.33h-8c-.74 0-1.33-.6-1.33-1.33V7.81c0-.73.59-1.33 1.33-1.33h8c.74 0 1.34.6 1.34 1.33v6.66zm1.96-5.95a.95.95 0 110-1.9c.53 0 .96.42.96.95 0 .52-.43.95-.96.95z" fill="#fff"/></g></g></svg>